<mxfile host="app.diagrams.net" modified="2022-05-11T02:36:22.759Z" agent="5.0 (Windows NT 10.0; Win64; x64) AppleWebKit/537.36 (KHTML, like Gecko) Chrome/101.0.4951.54 Safari/537.36" etag="2Txx16W8J1lY6S0Anf1x" version="18.0.2" type="github">
  <diagram id="kADMr-lE3rvYrvvGyYCy" name="Page-1">
    <mxGraphModel dx="853" dy="415" grid="1" gridSize="10" guides="1" tooltips="1" connect="1" arrows="1" fold="1" page="1" pageScale="1" pageWidth="827" pageHeight="1169" math="0" shadow="0">
      <root>
        <mxCell id="0" />
        <mxCell id="1" parent="0" />
        <mxCell id="NJ4G6fYVSdSBXjogSDOQ-1" value="Spark Streaming&lt;br&gt;流计算" style="rounded=0;whiteSpace=wrap;html=1;" vertex="1" parent="1">
          <mxGeometry x="500" y="120" width="120" height="60" as="geometry" />
        </mxCell>
        <mxCell id="NJ4G6fYVSdSBXjogSDOQ-5" value="Spark SQL&lt;br&gt;交互式查询分析" style="rounded=0;whiteSpace=wrap;html=1;" vertex="1" parent="1">
          <mxGeometry x="140" y="120" width="120" height="60" as="geometry" />
        </mxCell>
        <mxCell id="NJ4G6fYVSdSBXjogSDOQ-6" value="MLlib&lt;br&gt;机器学习" style="rounded=0;whiteSpace=wrap;html=1;" vertex="1" parent="1">
          <mxGeometry x="260" y="120" width="120" height="60" as="geometry" />
        </mxCell>
        <mxCell id="NJ4G6fYVSdSBXjogSDOQ-7" value="GraphX&lt;br&gt;图计算" style="rounded=0;whiteSpace=wrap;html=1;" vertex="1" parent="1">
          <mxGeometry x="380" y="120" width="120" height="60" as="geometry" />
        </mxCell>
        <mxCell id="NJ4G6fYVSdSBXjogSDOQ-29" value="Spark Core&lt;br&gt;RDD应用开发" style="rounded=0;whiteSpace=wrap;html=1;" vertex="1" parent="1">
          <mxGeometry x="140" y="180" width="480" height="60" as="geometry" />
        </mxCell>
        <mxCell id="NJ4G6fYVSdSBXjogSDOQ-30" value="存储组件" style="rounded=0;whiteSpace=wrap;html=1;" vertex="1" parent="1">
          <mxGeometry x="140" y="240" width="120" height="60" as="geometry" />
        </mxCell>
        <mxCell id="NJ4G6fYVSdSBXjogSDOQ-32" value="Tachyon&lt;br&gt;基于内存的分布式文件系统" style="rounded=0;whiteSpace=wrap;html=1;" vertex="1" parent="1">
          <mxGeometry x="260" y="240" width="360" height="30" as="geometry" />
        </mxCell>
        <mxCell id="NJ4G6fYVSdSBXjogSDOQ-34" value="S3&lt;br&gt;亚马逊提供的云端的简单存储服务" style="rounded=0;whiteSpace=wrap;html=1;" vertex="1" parent="1">
          <mxGeometry x="430" y="270" width="190" height="30" as="geometry" />
        </mxCell>
        <mxCell id="NJ4G6fYVSdSBXjogSDOQ-36" value="HDFS&lt;br&gt;基于磁盘的分布式文件系统" style="rounded=0;whiteSpace=wrap;html=1;" vertex="1" parent="1">
          <mxGeometry x="260" y="270" width="170" height="30" as="geometry" />
        </mxCell>
        <mxCell id="NJ4G6fYVSdSBXjogSDOQ-38" value="Mesos&lt;br&gt;&lt;span style=&quot;color: rgb(51, 51, 51); font-family: Arial, sans-serif; font-size: 13px; text-align: start; background-color: rgb(255, 255, 255);&quot;&gt;开源分布式资源管理框架&lt;/span&gt;" style="rounded=0;whiteSpace=wrap;html=1;" vertex="1" parent="1">
          <mxGeometry x="260" y="300" width="360" height="30" as="geometry" />
        </mxCell>
        <mxCell id="NJ4G6fYVSdSBXjogSDOQ-40" value="Hadoop YARN&lt;br&gt;&lt;span style=&quot;color: rgb(51, 51, 51); font-family: Arial, sans-serif; font-size: 13px; text-align: start; background-color: rgb(255, 255, 255);&quot;&gt;Hadoop集群的资源管理系统&lt;/span&gt;" style="rounded=0;whiteSpace=wrap;html=1;" vertex="1" parent="1">
          <mxGeometry x="260" y="330" width="360" height="30" as="geometry" />
        </mxCell>
        <mxCell id="NJ4G6fYVSdSBXjogSDOQ-41" value="资源调度管理器" style="rounded=0;whiteSpace=wrap;html=1;" vertex="1" parent="1">
          <mxGeometry x="140" y="300" width="120" height="60" as="geometry" />
        </mxCell>
      </root>
    </mxGraphModel>
  </diagram>
</mxfile>
